<?xml version="1.0" encoding="iso-8859-1"?>
<!-- Generator: Adobe Illustrator 19.0.0, SVG Export Plug-In . SVG Version: 6.00 Build 0)  -->
<svg version="1.1" id="Capa_1" xmlns="http://www.w3.org/2000/svg" xmlns:xlink="http://www.w3.org/1999/xlink" x="0px" y="0px"
	 viewBox="0 0 511.999 511.999" style="enable-background:new 0 0 511.999 511.999;" xml:space="preserve">
<g>
	<g>
		<path d="M510.814,251.981c-4.498-39.007-21.413-75.107-47.629-101.648c-50.971-51.594-117.096-33.77-165.377-20.756
			c-23.872,6.434-46.422,12.514-58.212,7.697c-17.279-7.058-24.881-18.714-33.682-32.213
			c-10.723-16.444-22.878-35.083-53.642-44.213c-39.854-11.814-83.557-0.845-111.336,27.947
			C15.76,114.885,1.251,153.256,0.077,196.843c-2.074,77.381,37.763,155.497,103.964,203.865
			c49.184,35.931,111.321,55.127,175.697,55.127c16.119,0,32.383-1.205,48.615-3.65c32.102-4.834,62.814-14.838,88.816-28.931
			c29.562-16.021,52.888-36.912,69.33-62.091C506.726,330.189,515.361,291.415,510.814,251.981z M469.361,349.968
			c-27.743,42.489-80.25,72.367-144.057,81.974c-75.769,11.416-152.011-5.992-209.187-47.763
			C55.266,339.72,18.643,268.148,20.538,197.392c1.036-38.463,13.51-71.982,35.127-94.384c16.477-17.076,39.953-26.395,64.13-26.395
			c8.893,0,17.884,1.261,26.653,3.861c23.55,6.989,32.247,20.325,42.317,35.769c9.324,14.301,19.894,30.508,43.089,39.981
			c18.19,7.429,42.793,0.795,71.281-6.883c48.23-13.001,102.896-27.734,145.487,15.377
			C496.461,213.146,505.571,294.518,469.361,349.968z"/>
	</g>
</g>
<g>
	<g>
		<path d="M377.539,156.555c-22.511,0-46.187,6.382-69.083,12.553c-5.457,1.472-8.69,7.088-7.219,12.546
			c1.23,4.566,5.362,7.574,9.876,7.574c0.882,0,1.779-0.116,2.67-0.356c21.609-5.824,43.955-11.847,63.756-11.847
			c5.652,0,10.235-4.583,10.235-10.235C387.775,161.138,383.191,156.555,377.539,156.555z"/>
	</g>
</g>
<g>
	<g>
		<path d="M108.135,121.264c-23.851,0-43.255,19.404-43.255,43.254c0,23.85,19.404,43.254,43.255,43.254
			c23.85,0,43.254-19.404,43.254-43.254S131.984,121.264,108.135,121.264z M108.136,187.301c-12.564,0-22.784-10.22-22.784-22.783
			c0-12.563,10.221-22.783,22.784-22.783c12.564,0,22.783,10.22,22.783,22.783S120.699,187.301,108.136,187.301z"/>
	</g>
</g>
<g>
	<g>
		<path d="M130.232,238.6c-23.85,0-43.254,19.404-43.254,43.254s19.404,43.254,43.254,43.254c23.85,0,43.254-19.404,43.254-43.254
			S154.082,238.6,130.232,238.6z M130.232,304.637c-12.563,0-22.783-10.22-22.783-22.783s10.22-22.783,22.783-22.783
			s22.783,10.22,22.783,22.783S142.796,304.637,130.232,304.637z"/>
	</g>
</g>
<g>
	<g>
		<path d="M230.149,314.759c-23.851,0-43.255,19.404-43.255,43.254c0,23.85,19.404,43.254,43.255,43.254
			c23.85,0,43.254-19.404,43.254-43.254C273.402,334.163,253.997,314.759,230.149,314.759z M230.149,380.797
			c-12.563,0-22.784-10.22-22.784-22.783s10.221-22.783,22.784-22.783c12.564,0,22.783,10.22,22.783,22.783
			S242.711,380.797,230.149,380.797z"/>
	</g>
</g>
<g>
	<g>
		<path d="M352.243,311.802c-23.851,0-43.255,19.404-43.255,43.255c0,23.85,19.404,43.254,43.255,43.254
			c23.85,0,43.254-19.404,43.254-43.254C395.496,331.205,376.092,311.802,352.243,311.802z M352.243,377.839
			c-12.563,0-22.784-10.22-22.784-22.783c0-12.564,10.221-22.784,22.784-22.784c12.564,0,22.783,10.221,22.783,22.784
			C375.027,367.619,364.806,377.839,352.243,377.839z"/>
	</g>
</g>
<g>
	<g>
		<path d="M420.531,216.02c-23.85,0-43.254,19.404-43.254,43.255c0,23.85,19.404,43.254,43.254,43.254s43.254-19.404,43.254-43.254
			C463.785,235.424,444.381,216.02,420.531,216.02z M420.531,282.058c-12.563,0-22.783-10.22-22.783-22.783
			c0-12.564,10.22-22.784,22.783-22.784s22.783,10.221,22.783,22.784C443.315,271.838,433.095,282.058,420.531,282.058z"/>
	</g>
</g>
<g>
	<g>
		<path d="M280.955,175.531c-13.172,0-13.193,20.47,0,20.47C294.126,196.001,294.149,175.531,280.955,175.531z"/>
	</g>
</g>
<g>
</g>
<g>
</g>
<g>
</g>
<g>
</g>
<g>
</g>
<g>
</g>
<g>
</g>
<g>
</g>
<g>
</g>
<g>
</g>
<g>
</g>
<g>
</g>
<g>
</g>
<g>
</g>
<g>
</g>
</svg>
